<?xml version="1.0" encoding="UTF-8" standalone="no"?>
<svg xmlns="http://www.w3.org/2000/svg" xmlns:xlink="http://www.w3.org/1999/xlink" width="406.378mm" height="227.468mm" viewBox="644.249268 405.419434 406.378418 227.467834">
    <path style="stroke:none;fill:#000000;fill-rule:evenodd" d="M848.119385,449.786163C844.862549,449.656769,842.391235,448.600952,840.936523,446.717438C839.654419,445.057465,839.1427,443.649872,838.266541,439.372894L837.489624,435.580444L836.55304,435.771454L835.616455,435.962494L835.217407,434.005951L834.818359,432.049408L835.696472,431.810852L836.574585,431.572266L836.197693,429.454193L835.820862,427.33609L837.86908,426.918335L839.917236,426.50058L840.400024,428.597076L840.882813,430.693573L843.468994,430.220367L846.055237,429.747162L846.455322,431.708679L846.855347,433.670197L844.232971,434.205048L841.610535,434.739929L842.232788,437.783508C843.184326,442.437561,843.855408,443.88739,845.491211,444.82251C846.224609,445.24176,847.650635,445.51651,848.669556,445.434906C849.147461,445.396637,849.151733,445.406036,849.651184,447.586639C850.038208,449.276123,850.097351,449.784912,849.910034,449.812225C849.776489,449.831696,848.970703,449.819977,848.119385,449.786163z"/>
    <path style="stroke:none;fill:#000000;fill-rule:evenodd" d="M746.988403,470.17926C742.533752,469.608643,738.967224,466.252716,738.064087,461.782013C737.455933,458.771393,737.925293,456.213226,739.531494,453.783997C741.151611,451.333588,743.246216,449.924805,746.14978,449.332581C749.036072,448.743896,751.184937,449.070618,753.403137,450.435425L754.656982,451.206909L753.4646,452.990631L752.272217,454.774384L750.936646,454.140076C748.590576,453.025848,746.47699,453.177185,744.529297,454.598877C743.418335,455.409821,742.631226,456.56601,742.217957,457.99411C741.941284,458.950104,741.946777,459.282471,742.265137,460.855774C742.571655,462.370636,742.72229,462.761383,743.276611,463.478546C745.867004,466.83017,750.544312,466.782288,753.196167,463.376984L753.853882,462.53241L755.567932,463.625824C756.51062,464.227203,757.324158,464.73291,757.375732,464.749634C757.571777,464.813202,756.731018,465.952454,755.715637,466.999237C754.083435,468.681885,752.638184,469.462952,750.262207,469.946411C748.722046,470.259827,748.011719,470.310364,746.988403,470.17926z"/>
    <path style="stroke:none;fill:#000000;fill-rule:evenodd" d="M778.998596,463.630798C771.327576,462.56424,767.320129,453.717651,771.585632,447.266357C773.206909,444.814178,775.292847,443.38681,778.079956,442.822388C781.000061,442.230988,783.217285,442.654541,785.730225,444.283844C788.318359,445.961945,789.681274,447.981049,790.311462,451.071045C790.931824,454.112518,790.446045,456.67923,788.79126,459.103638C787.064697,461.633301,785.267578,462.818298,782.227478,463.431763C780.72168,463.735626,780.050354,463.777008,778.998596,463.630798zM783.880249,458.163269C784.979065,457.288788,785.868103,455.736633,786.101685,454.28479C786.493774,451.847931,785.198853,448.933746,783.199097,447.752625C781.622192,446.821259,780.740967,446.67218,778.952393,447.034363C777.537292,447.320892,777.26123,447.44104,776.476013,448.111969C775.400024,449.031372,774.795288,450.0495,774.431091,451.554749C774.202026,452.501709,774.210449,452.96109,774.481262,454.289032C774.772217,455.715424,774.899597,456.004974,775.678955,457.011963C776.684448,458.311127,777.888672,459.062347,779.397095,459.331451C780.833618,459.587708,782.702148,459.1008,783.880249,458.163269z"/>
    <path style="stroke:none;fill:#000000;fill-rule:evenodd" d="M813.306763,456.729095C809.613892,456.326782,806.456421,453.922363,804.891235,450.320618C804.451416,449.308594,803.957458,447.158173,802.291504,439.003693L800.234741,428.936188L802.295227,428.51593L804.355713,428.095673L805.464111,433.530151L806.57251,438.96463L807.184937,438.380005C808.966675,436.679108,812.134277,435.507813,814.618835,435.631134C818.412781,435.819427,821.914124,438.109222,823.554688,441.474945C824.223511,442.847229,824.746094,445.366638,824.667114,446.838348C824.478516,450.353699,822.328003,453.846375,819.3479,455.477417C817.865112,456.28894,814.902039,456.902893,813.306763,456.729095zM818.187256,451.126953C819.185974,450.286407,819.932739,449.128876,820.319336,447.822357C820.543213,447.065674,820.525513,446.646667,820.202759,445.057068C819.761658,442.884766,819.183289,441.950806,817.652344,440.938568C815.600769,439.582092,812.705444,439.615631,810.743347,441.018646C809.568176,441.858978,808.476746,443.678253,808.230591,445.207062C807.83252,447.680054,809.11969,450.436249,811.240723,451.652283C812.748108,452.516541,814.010986,452.677002,815.817444,452.233795C817.037354,451.934509,817.465332,451.734619,818.187256,451.126953z"/>
    <path style="stroke:none;fill:#000000;fill-rule:evenodd" d="M701.262146,472.677734C700.073486,466.850067,699.925293,465.916779,700.005249,464.764404C700.178345,462.270081,701.238037,460.17627,703.026245,458.795227C703.949158,458.082458,704.191345,457.988037,706.088867,457.601013C707.948547,457.22171,708.259766,457.209595,709.282776,457.476654C709.906189,457.639404,710.814026,458.04245,711.300232,458.372314L712.184204,458.972107L712.888916,458.030457C713.276489,457.512573,714.012329,456.774261,714.524109,456.389801C715.351868,455.767944,715.682129,455.644348,717.515076,455.270508C719.416321,454.882721,719.671082,454.875153,720.81189,455.172424C723.08136,455.763763,725.140503,457.621368,726.166504,460.002869C726.419556,460.590118,727.078857,463.418915,727.892151,467.406403L729.208374,473.859528L727.147888,474.279785L725.087463,474.700043L723.81366,468.454773C722.458801,461.812042,722.239258,461.125763,721.141235,460.101166C719.667786,458.726257,717.254272,459.083649,716.173157,460.836853C715.276489,462.290955,715.288513,462.501343,716.677612,469.635345L717.947388,476.156342L715.897949,476.574341L713.848572,476.99234L712.594727,470.844971C711.575928,465.849976,711.249512,464.526184,710.853394,463.783295C708.981934,460.273621,704.626038,461.105804,704.266357,465.041748C704.202698,465.738312,704.483704,467.427948,705.456787,472.198853L706.730591,478.444122L704.670166,478.86438L702.60968,479.284637L701.262146,472.677734z"/>
    <path style="stroke:none;fill:#000000;fill-rule:evenodd" d="M730.555176,463.244171L728.530273,453.316498L730.684448,452.877136L732.838562,452.437775L734.863403,462.365448L736.888245,472.293121L734.734131,472.732483L732.580017,473.171844L730.555176,463.244171z"/>
    <path style="stroke:none;fill:#000000;fill-rule:evenodd" d="M759.812073,461.286163C758.473572,454.723633,758.393799,453.907074,758.891724,451.865662C759.584229,449.026215,761.661926,447.122498,765.404541,445.898071L766.547668,445.524078L766.97168,447.602936C767.204895,448.746307,767.369019,449.687225,767.336426,449.693878C767.303833,449.700531,766.798462,449.899414,766.213379,450.135803C764.845215,450.688629,763.983276,451.383118,763.570923,452.264862C762.919434,453.657867,762.946411,454.025269,764.171448,460.436218L765.328735,466.492371L763.190308,466.928528L761.05188,467.364685L759.812073,461.286163z"/>
    <path style="stroke:none;fill:#000000;fill-rule:evenodd" d="M797.868347,459.411682C796.672852,459.061157,796.030151,458.294373,795.868774,457.026245C795.503906,454.159515,798.64209,452.63913,800.853516,454.611267C801.596069,455.273468,801.846497,456.887543,801.362122,457.889282C800.679565,459.300842,799.396667,459.859833,797.868347,459.411682z"/>
    <path style="stroke:none;fill:#000000;fill-rule:evenodd" d="M828.146179,443.339355L826.121277,433.411682L828.181763,432.991425L830.242188,432.571167L832.26709,442.49884L834.291931,452.426544L832.231445,452.846802L830.171021,453.267029L828.146179,443.339355z"/>
    <path style="stroke:none;fill:#000000;fill-rule:evenodd" d="M794.505859,444.812012C792.62146,443.786713,792.25592,441.433167,793.758484,439.999908C794.170288,439.607117,794.529114,439.459198,795.343079,439.346619C797.036865,439.112366,798.217773,439.914764,798.569458,441.538818C798.955017,443.319733,798.096924,444.588562,796.251465,444.966248C795.377869,445.14502,795.067505,445.117615,794.505859,444.812012z"/>
    <path style="stroke:none;fill:#000000;fill-rule:evenodd" d="M728.819702,449.967346C727.821655,449.669708,727.158325,448.880493,726.942383,447.733673C726.737671,446.646423,727.015686,445.886536,727.866089,445.208984C728.976624,444.324188,730.516785,444.428955,731.5578,445.460114C732.682312,446.573975,732.540527,448.482544,731.25824,449.49176C730.504089,450.085297,729.724854,450.237274,728.819702,449.967346z"/>
    <path style="stroke:none;fill:#000000;fill-rule:evenodd" d="M826.264587,430.096191C825.263306,429.798889,824.661133,429.109222,824.434204,428.000122C824.194946,426.830505,824.529907,425.816132,825.336304,425.268005C826.517578,424.465027,827.708679,424.531372,828.887878,425.465759C829.453491,425.913971,829.537354,426.086884,829.664612,427.067657C829.824524,428.300446,829.50354,429.062134,828.545715,429.723083C827.815735,430.226746,827.098999,430.343994,826.264587,430.096191z"/>
    <path style="stroke:none;fill:#000000;fill-rule:evenodd" d="M871.870483,444.948242L871.792175,445.487C871.528625,447.758698,871.520935,450.052734,871.769165,452.326172C871.864502,453.296478,871.988708,454.263947,872.141602,455.226868L872.761841,459.168091L874.853821,469.608978L875.819214,468.830292C878.947632,466.330811,881.879639,463.594696,884.58905,460.64624C885.810913,459.336609,886.918091,457.924591,887.898438,456.425659C888.576782,455.39212,889.091187,454.259918,889.423523,453.069153C889.511047,452.729492,889.566467,452.382324,889.58905,452.032288L889.808044,451.997803L892.418213,468.58371L904.077454,466.748871C906.007751,466.410858,907.990356,466.525421,909.868835,467.083557C911.708252,467.672729,913.381226,468.690796,914.749817,470.053741C916.213623,471.519531,917.443481,473.20166,918.396118,475.041168L920.753723,484.318207L914.517517,488.889648C917.16272,494.436218,919.898376,499.938965,922.723389,505.396179C923.584595,507.082886,924.51825,508.731567,925.521729,510.337646C926.281006,511.458435,927.177917,512.479248,928.19165,513.376526C930.067505,515.022766,932.198975,516.352295,934.502441,517.312927C937.267517,518.46637,940.15332,519.30542,943.105774,519.814453L943.862183,519.94751L943.931152,520.385498C940.827087,520.85083,937.671326,520.855957,934.565735,520.400696C931.494507,519.952332,928.475891,519.198486,925.554565,518.150208L924.205444,517.65564C921.009094,516.02301,918.361328,513.489136,916.589722,510.367706L916.223633,509.712555L905.019165,495.54483L904.396667,495.867218L906.085083,506.596008C906.306702,508.053253,907.170288,509.334656,908.437683,510.087158C909.112549,510.501709,909.839722,510.824249,910.599915,511.046387L910.703308,511.703339L892.749023,514.52887L892.680054,514.090942L893.130798,513.84552C893.89563,513.431458,894.578857,512.881958,895.147339,512.223694C895.839355,511.422577,896.139526,510.354858,895.966614,509.310455L896.151123,509.057007L895.518677,506.464111L891.211426,479.09491C890.91803,477.235626,889.950562,475.549133,888.493652,474.3573C888.297058,474.189423,888.09375,474.029449,887.884399,473.877838C886.77417,473.740112,885.654175,473.697418,884.536743,473.750214C882.373962,473.856018,880.220276,474.101318,878.089111,474.48465L875.934204,475.048157L880.425903,502.16394C880.748962,504.183746,881.238037,506.173523,881.888062,508.112946C882.30835,509.401001,882.886475,510.632141,883.609131,511.778137C884.225891,512.753418,885.010986,513.611511,885.927795,514.312256L865.897461,521.054565L865.863037,520.835571L866.622986,519.794617C867.747437,518.237488,868.733826,516.585083,869.570801,514.856384C870.269775,513.429199,870.78302,511.918274,871.098022,510.360687C871.369873,509.026215,871.406067,507.654419,871.205078,506.307465L865.829651,472.150696C865.705261,471.24408,865.404053,470.370575,864.943176,469.580017C864.327942,468.566101,863.398743,467.780548,862.29657,467.342682C861.576355,467.052856,860.819885,466.862915,860.048157,466.778107L860.013672,466.559143L871.835999,444.729248L871.870483,444.948242zM897.644409,472.921631L897.678894,473.140625L897.882263,473.117035C898.645569,473.07547,899.382568,473.402344,899.864258,473.99585C900.424438,474.669067,900.856445,475.439178,901.138794,476.268219C901.669067,477.78598,902.048828,479.352142,902.272583,480.944214L903.547485,489.045197C905.657715,487.462158,907.697388,485.787354,909.660767,484.025482C910.027039,483.709442,910.365417,483.362305,910.671936,482.988007C910.443176,481.379272,910.046387,479.79892,909.488037,478.272949C909.012939,476.989563,908.29541,475.809418,907.374573,474.797028C906.139343,473.499756,904.459229,472.717621,902.671387,472.607544C900.989136,472.500946,899.300293,472.606476,897.644409,472.921631z"/>
    <path style="stroke:none;fill:#000000;fill-rule:evenodd" d="M713.822876,496.69986L714.379517,496.643402C716.812012,496.399475,719.260315,496.921509,721.381775,498.136475C722.971802,499.088348,724.363281,500.338074,725.479858,501.817078C726.269592,502.840698,726.971313,503.929199,727.577637,505.071045L729.935242,514.348083L723.699036,518.919556C726.343811,524.46637,729.079468,529.969238,731.904968,535.426025C732.766235,537.112549,733.699768,538.761353,734.702759,540.367615C735.462219,541.488403,736.359314,542.509216,737.373169,543.406372C739.248779,545.052917,741.38031,546.382507,743.68396,547.342773C746.448853,548.496216,749.334534,549.335327,752.286804,549.84436L753.043701,549.977356L753.112671,550.415344C750.008606,550.880737,746.852844,550.885864,743.747253,550.430542C740.676025,549.9823,737.65741,549.228394,734.736084,548.180054L733.386475,547.685608C730.190186,546.05304,727.542542,543.519104,725.77124,540.397583L725.405151,539.742432L714.200684,525.574707L713.578186,525.897095L715.266602,536.625854C715.488403,538.082947,716.351685,539.364258,717.618713,540.117126C718.293823,540.531555,719.021118,540.854065,719.781433,541.076233L719.884827,541.733215L701.930542,544.558777L701.861572,544.120789L702.311829,543.875427C703.076904,543.461548,703.760376,542.911987,704.328857,542.253601C705.020691,541.452332,705.320984,540.384705,705.148132,539.340332L705.332642,539.086853L704.700195,536.494019L700.392944,509.124786C700.099487,507.265533,699.132019,505.579041,697.675171,504.387146C696.384827,503.342072,694.919434,502.534302,693.346863,502.001251C692.302734,501.628998,691.235901,501.323853,690.152832,501.087769L690.083984,500.650269L691.582397,500.190063L713.258972,496.778717L713.822876,496.69986zM706.825928,502.951508L706.860413,503.170502L707.063782,503.146881C707.827026,503.105377,708.564087,503.432251,709.045776,504.025726C709.605835,504.699036,710.037781,505.469116,710.320313,506.298096C710.850464,507.815857,711.230225,509.382019,711.454102,510.974091L712.729004,519.075073C714.839111,517.492004,716.878906,515.817139,718.842285,514.055359C719.208557,513.739319,719.546936,513.392151,719.853455,513.017883C719.624573,511.409149,719.227783,509.828857,718.669495,508.302795C718.194092,507.019592,717.476563,505.839539,716.556091,504.826904C715.320862,503.529663,713.640747,502.747498,711.852844,502.63739C710.170654,502.530823,708.481812,502.636353,706.825928,502.951508z"/>
    <path style="stroke:none;fill:#000000;fill-rule:evenodd" d="M663.785522,470.528198C664.994629,472.910706,666.612488,475.062561,668.56543,476.885834C670.251221,478.434113,672.173157,479.703613,674.25885,480.646545C676.612,481.485291,679.015564,482.174988,681.455444,482.711548C682.956055,483.054962,684.490906,483.227173,686.030334,483.224854L686.552734,483.199493L686.806152,483.384003L690.010742,503.746674C690.263306,505.359253,691.072876,506.83252,692.298645,507.91037C693.254211,508.748138,694.341187,509.422882,695.51593,509.907623L696.183533,510.179718L696.218018,510.398682L692.252258,513.71521C691.826294,514.45459,691.497253,515.245911,691.273315,516.069336C691.186096,516.378784,691.161926,516.702698,691.202271,517.021667L694.889282,540.450134L694.520203,540.957031L692.549866,541.26709C688.92041,541.81366,685.586548,543.585327,683.102661,546.287537C681.546692,547.988525,680.249146,549.908936,679.251526,551.987244C678.335632,553.876404,677.577698,555.838074,676.985352,557.852295L676.547363,557.921204L676.117554,556.951843C675.059021,554.590393,673.698975,552.375977,672.071533,550.364014C669.636536,547.41156,666.514221,545.101563,662.978638,543.636719C660.344849,542.553406,657.581482,541.817078,654.757874,541.446167L653.739929,541.316223L650.121948,518.326233C649.991272,517.674683,649.737427,517.05426,649.374023,516.497925C648.605896,515.333984,647.702515,514.26532,646.682739,513.314087C645.910034,512.56897,645.109741,511.852844,644.283691,511.167328L644.249268,510.948334L644.826782,510.648376C645.879089,510.072815,646.749512,509.214508,647.339844,508.170441C647.827026,507.256775,648.115173,506.250458,648.185486,505.217407C648.255371,504.233948,648.208008,503.245667,648.044434,502.273376L645.218994,484.31955C645.272339,484.233673,645.354675,484.17041,645.451294,484.140625C646.455688,483.737976,647.484192,483.398163,648.530762,483.123138C649.774902,482.765839,651.021545,482.420776,652.272156,482.087524L653.142456,481.659424C654.988037,480.741608,656.707031,479.588501,658.256287,478.228943C659.830688,476.842896,661.065063,475.113098,661.863831,473.173553L663.317871,469.579102L663.785522,470.528198zM666.456177,487.272156L665.965454,487.385956C665.287415,487.539063,664.647095,487.827667,664.083252,488.234283C663.352783,488.771667,662.958862,489.654388,663.046509,490.557007L663.088074,490.931061L669.945129,534.502686C670.069702,535.440491,670.324524,536.356384,670.702026,537.223755C670.924744,537.73761,671.248047,538.20166,671.652832,538.588684C672.195801,539.086548,672.920593,539.337708,673.655212,539.282898C674.157104,539.237549,674.656372,539.166077,675.150879,539.068726C675.836731,538.973511,676.433472,538.549927,676.749695,537.933838C677.0755,537.256958,677.250732,536.5177,677.263306,535.766602C677.295593,534.669495,677.218201,533.57196,677.032349,532.490234L670.485413,490.888947C670.387817,490.144745,670.177673,489.419586,669.862305,488.738495C669.636597,488.231262,669.272095,487.797943,668.810974,487.48877C668.262207,487.161133,667.61084,487.049835,666.984375,487.176666L666.456177,487.272156z"/>
    <path style="stroke:none;fill:#000000;fill-rule:evenodd" d="M779.725464,469.658569L779.035583,470.108673C778.043457,470.76004,777.13446,471.53006,776.328857,472.401581C775.688171,473.083954,775.188843,473.886475,774.85968,474.762695C774.578796,475.539917,774.499329,476.375671,774.628601,477.191925L777.798645,497.335602C777.969666,497.459503,778.160339,497.553284,778.362854,497.613098C780.039551,498.235046,781.733521,498.809753,783.442505,499.336548C789.036072,501.119873,794.635193,502.863647,800.253296,504.57193C800.517456,506.319305,800.795105,508.070068,801.084595,509.813568C801.528625,512.600037,802.25293,515.334717,803.24646,517.975647C803.956787,519.8797,804.941223,521.669922,806.16864,523.289551C807.202393,524.646729,808.507996,525.773254,810.001892,526.597168L810.220886,526.562683L810.289795,527.000671L790.146118,530.170715L790.077209,529.732788L790.210754,529.701843C790.553101,529.56897,790.825867,529.301758,790.965759,528.962219C791.269287,528.232056,791.440491,527.453857,791.471558,526.663757C791.571045,524.856018,791.524902,523.043152,791.333679,521.242798C791.280701,520.650146,791.220764,520.057739,791.153931,519.466431L789.637817,509.832581L779.258179,505.183624L781.141052,518.574219C781.451843,520.704224,782.010803,522.790649,782.806458,524.790771C783.477905,526.48761,784.422302,528.063354,785.602234,529.455322C785.918823,529.822205,786.2547,530.171936,786.608398,530.503052L786.423889,530.756531L762.480774,534.524536C760.830627,535.437073,759.371643,536.659058,758.183838,538.123535C756.717773,539.921326,755.47699,541.891541,754.488953,543.990479C754.278015,544.424255,754.074707,544.861511,753.878845,545.302429L753.659912,545.336853L753.212708,544.775574C751.723999,542.898804,749.936279,541.280029,747.92157,539.984192C744.902344,538.078369,741.329773,537.242371,737.778381,537.61084C737.216431,537.667114,736.656494,537.741882,736.099487,537.834961L735.59259,537.465942L730.871887,507.469421C730.914856,507.345367,731.01416,507.24884,731.139465,507.209808C732.036987,506.77832,732.966553,506.417053,733.919861,506.129181C734.450928,505.953796,734.982849,505.782959,735.516785,505.616394L736.136658,505.280579C737.293762,504.57431,738.356201,503.723816,739.298706,502.749451C740.75885,501.237671,742.075806,499.593781,743.232544,497.838928C744.194275,496.406708,745.09729,494.936066,745.939514,493.43042L746.617371,494.289093C747.869995,495.848907,749.319214,497.240082,750.928894,498.427917C752.826904,499.831238,755.014587,500.792603,757.331909,501.241638L758.184387,501.375885L762.229004,501.412567L760.655457,514.225586L760.217468,514.294495L759.875122,513.85907C759.23114,513.018188,758.460327,512.282471,757.590332,511.678436C757.056702,511.305389,756.435364,511.077026,755.78717,511.015656C755.597168,511.00415,755.406555,511.013092,755.218506,511.042358L748.489319,509.632874C747.47644,509.04541,746.526123,508.355835,745.653503,507.575073C745.323364,507.290405,745.059387,506.937012,744.880127,506.539673L744.838257,506.393005L744.619263,506.42749L748.857605,533.359192L749.076599,533.324707L749.057434,533.05835C749.099243,532.511841,749.293091,531.98822,749.617249,531.546204C750.216003,530.71405,750.92688,529.968567,751.729675,529.331055C752.463196,528.722778,753.22467,528.148987,754.011597,527.611633L754.466797,527.517212C755.388184,527.249451,756.263123,526.842773,757.061829,526.311035C758.425049,525.410156,759.702148,524.385376,760.876892,523.249573C761.902283,522.279358,762.892029,521.2724,763.844543,520.23053L764.951172,518.709961L766.620117,529.314758C767.676208,528.141296,768.474915,526.759644,768.964844,525.25885C769.354858,523.992554,769.447937,522.653381,769.236694,521.345276L762.448486,478.211121C762.281921,477.137146,761.731384,476.160004,760.899109,475.461029C760.19165,474.87738,759.387329,474.422455,758.522583,474.116882C757.657593,473.803833,756.766357,473.568756,755.859497,473.414429L755.790588,472.976471L779.656555,469.220581L779.725464,469.658569z"/>
    <path style="stroke:none;fill:#000000;fill-rule:evenodd" d="M845.624329,477.953705L845.799866,478.516266C846.160645,479.467163,846.740662,480.319458,847.492798,481.004028C848.398804,481.813385,849.430115,482.470184,850.546692,482.948914C851.65271,483.433167,852.797791,483.822937,853.969604,484.114044L860.272522,484.244171L862.202209,496.505859L861.983215,496.540314L861.016602,495.904053C859.359131,494.812683,857.612427,493.863312,855.795105,493.06604C854.646057,492.55661,853.43811,492.19162,852.199158,491.979523C851.41156,491.845856,850.608032,491.835083,849.817139,491.947601L849.281677,491.745667C848.134399,491.333923,847.049255,490.766235,846.056824,490.058533C845.562134,489.708557,845.157776,489.245972,844.877075,488.708923L844.783752,488.476959L844.564758,488.511414L845.529541,494.642029L862.131042,500.331482L862.428894,503.650238L863.359253,509.561859L864.070557,515.507935L863.051819,515.906494C861.747803,516.431458,860.482239,517.047119,859.264404,517.749146C856.728943,519.251465,854.640381,521.402954,853.213989,523.981873C852.773438,524.815552,852.409668,525.687622,852.127258,526.58728L851.908264,526.621704L851.805603,526.14209C851.56311,525.309448,851.116821,524.550537,850.50708,523.933838C849.742493,523.170288,848.862732,522.531677,847.899902,522.041199C846.645325,521.397217,845.334412,520.869446,843.983643,520.464355L837.461731,520.368713L835.532104,508.107513L835.751099,508.073059L836.646423,508.692841C838.185669,509.758057,839.816833,510.68396,841.520569,511.459473C842.605896,511.957825,843.75116,512.313782,844.927795,512.518372C845.687439,512.648865,846.46283,512.659424,847.225708,512.549683L847.566528,512.623535C848.964661,512.996948,850.276062,513.640381,851.427002,514.517639C851.93103,514.887024,852.416504,515.281067,852.881653,515.698425L852.170227,509.751862L850.553589,509.225311C846.854797,508.031158,843.160583,506.80307,839.483093,505.545135C838.159424,505.102661,836.853577,504.608154,835.568848,504.062866L833.237915,487.8255L833.422424,487.572052L834.516846,487.399811C836.259521,487.152557,837.960815,486.671143,839.574646,485.968689C841.014343,485.350189,842.291931,484.407471,843.307495,483.214264C844.244141,482.061462,844.869019,480.6875,845.122314,479.223938L845.065674,477.43808L845.503662,477.369141L845.624329,477.953705z"/>
    <path style="stroke:none;fill:#000000;fill-rule:evenodd" d="M954.472046,469.02713L954.13739,469.319031C953.370239,470.06955,952.835022,471.024658,952.595276,472.07077C952.344849,473.16748,952.273987,474.297607,952.385376,475.417023C952.421631,475.858215,952.474548,476.297852,952.543884,476.735046L956.403137,501.257935C956.557861,502.230499,957.063354,503.112701,957.824036,503.738098C958.479065,504.270996,959.22052,504.687561,960.016357,504.96991C960.815674,505.260803,961.638672,505.482025,962.476196,505.631165L962.545044,506.068665L945.004272,511.522003L944.935303,511.084045L945.286133,510.721863C946.23999,509.733276,946.90564,508.502502,947.210876,507.163086C947.392883,506.283264,947.410828,505.37738,947.263916,504.490997L945.575439,493.762207L938.258789,492.89447L939.568176,501.214447C939.745361,502.568726,940.249268,503.859619,941.036499,504.975769C941.479919,505.575714,942.024048,506.094208,942.644836,506.508026L942.679321,506.72702L927.373169,507.845703L927.304199,507.407715L927.646423,507.163574C928.677185,506.431274,929.383423,505.326996,929.615967,504.084106C929.723389,503.429871,929.721863,502.76239,929.611511,502.108643L926.923706,485.029785C926.860474,484.687683,926.624634,484.402466,926.300476,484.276184C925.804993,484.076111,925.274475,483.977234,924.740234,483.985443C924.071411,483.96521,923.402222,484.00946,922.741821,484.117523L922.638428,483.460571L924.645203,481.572449C928.859009,477.639832,932.988831,473.619629,937.033325,469.513123C938.323181,468.223602,939.560242,466.882416,940.741516,465.492767C940.851624,465.357574,940.958252,465.219666,941.061462,465.079102L941.125244,464.82489C941.245667,464.236267,941.458252,463.670319,941.755066,463.14798C941.820007,463.027008,941.932251,462.938049,942.064819,462.902008L954.472046,469.02713zM936.363647,480.851776L937.569641,488.515259C937.630981,488.620117,937.730591,488.696167,937.847473,488.729065C938.507568,488.954407,939.18811,489.11499,939.879333,489.208588C941.492188,489.467194,943.111938,489.682922,944.736206,489.855438L942.358643,474.747925L936.363647,480.851776z"/>
    <path style="stroke:none;fill:#000000;fill-rule:evenodd" d="M815.183777,481.046356L815.265869,481.389313C815.657776,482.845337,816.60083,484.091949,817.895325,484.865082C818.981873,485.510529,820.171997,485.962708,821.412964,486.20166C822.826477,486.485992,824.263428,486.637817,825.705078,486.655151L829.023865,486.3573L829.277283,486.541809L829.715271,486.4729L831.782715,499.610016L832.518555,502.859863L831.009155,503.931763C827.477356,506.413513,823.999939,508.971222,820.578857,511.603546C819.84436,512.156006,819.139404,512.746704,818.467041,513.373291L819.397339,519.284912C820.088257,517.942017,820.983704,516.714478,822.051453,515.646423C822.919922,514.77594,823.982056,514.122986,825.150879,513.741028C825.467285,513.642639,825.790405,513.5672,826.117737,513.515259L826.538391,513.301758C827.854675,512.546631,829.057373,511.609009,830.110779,510.516724C831.345642,509.263,832.492249,507.925293,833.542297,506.513184L833.761292,506.478729L835.471985,518.774841C835.454834,518.945923,835.342041,519.091797,835.180786,519.151367C834.570251,519.440796,833.922546,519.644165,833.256226,519.755737C832.863098,519.839233,832.46814,519.914856,832.072021,519.982666L831.357727,520.397095C828.161621,522.309143,825.715637,525.257629,824.426819,528.751953L824.151062,529.531311L824.185547,529.750305L823.747559,529.819214L823.231445,529.306824C821.552307,527.625732,819.682983,526.145935,817.661377,524.897461C816.009338,523.869995,814.190308,523.13916,812.286682,522.738037C810.885681,522.456421,809.445923,522.424622,808.033875,522.644104L807.780396,522.459595L802.921875,491.587097C802.946289,491.496582,803.009583,491.422119,803.094971,491.383392C803.718079,491.060089,804.37146,490.798981,805.045837,490.603851C806.170715,490.243652,807.302917,489.907776,808.4422,489.596313L808.882874,489.381134C810.264893,488.633636,811.475891,487.606262,812.438538,486.364441C813.195618,485.402679,813.853699,484.366943,814.40271,483.27298L814.680664,480.76123L815.118652,480.692322L815.183777,481.046356zM814.22644,490.7052L816.56958,505.594208C818.29364,504.396576,819.962341,503.12088,821.570251,501.771301C821.911011,501.47467,822.238647,501.163391,822.552368,500.838226L821.415222,493.612732L820.758301,493.716095C819.700989,493.865051,818.623413,493.681702,817.674866,493.191528C816.62738,492.651245,815.675476,491.943207,814.85675,491.095337L814.445374,490.670746L814.22644,490.7052z"/>
    <path style="stroke:none;fill:#000000;fill-rule:evenodd" d="M805.184937,544.209412L805.183105,544.426086L804.740967,544.695801C802.985901,545.75354,801.450012,547.137878,800.215881,548.773682C798.724182,550.827026,797.926575,553.302856,797.939331,555.840881L797.499023,607.345947C797.528992,610.018982,798.618347,612.571045,800.528931,614.440796C801.461914,615.372925,802.52655,616.16333,803.688904,616.78656C804.388855,617.180908,805.112061,617.53241,805.85437,617.839539L805.850647,618.272949L776.402954,618.021179L776.404785,617.804504L776.933167,617.324097C778.48761,615.909973,779.652832,614.12085,780.31897,612.127808C780.641235,611.103821,780.807312,610.03717,780.811401,608.963684L780.999939,586.878235C778.32782,586.784729,775.653503,586.980713,773.02356,587.46283C771.823486,587.707886,770.647583,588.059143,769.509583,588.512146L769.50769,588.728821L769.897278,589.174194C771.133301,590.58313,772.010376,592.269897,772.45282,594.091125C772.616577,594.827576,772.696777,595.580139,772.690674,596.334534L772.502136,618.420898C772.414124,621.49054,773.805603,624.417114,776.24115,626.287537L776.762085,626.685425L776.760254,626.9021L742.278503,632.887268L742.282166,632.453918L743.005066,632.048645C745.668823,630.55896,748.027283,628.579895,749.956116,626.214722C752.27594,623.264343,753.685547,619.701843,754.014587,615.963135C754.090332,615.216614,754.131042,614.466919,754.135864,613.716492L754.395447,583.402527C754.454224,582.202576,754.09137,581.019714,753.366882,580.061401C752.840271,579.405579,752.158386,578.891479,751.383484,578.564392L750.973145,578.392456L750.238281,578.333435C749.757263,578.278931,749.283813,578.17041,748.827942,578.007446C748.767517,577.96991,748.714233,577.923096,748.663391,577.873779L748.606201,577.782471L748.596985,577.722534L776.308899,553.057129L776.305237,553.49054L776.115295,553.872253C775.329834,555.639099,774.768799,557.497498,774.444946,559.403748C773.954163,561.938782,773.623047,564.502197,773.453247,567.078613C773.21698,570.330444,773.090454,573.588989,773.073792,576.849365L772.611389,580.310364L780.864868,577.349121L781.114746,548.118103L781.370605,543.572754C781.359253,541.681274,780.916016,539.817322,780.075562,538.122803C779.496094,536.902771,778.794861,535.744263,777.981995,534.665527L777.983826,534.448853L805.184937,544.209412z"/>
    <path style="stroke:none;fill:#000000;fill-rule:evenodd" d="M820.385681,542.613953L820.392029,542.986023C820.465576,544.84259,821.38739,546.562805,822.893005,547.65155C823.797363,548.350952,824.803406,548.907898,825.875916,549.303894C827.270325,549.834106,828.711121,550.232849,830.179626,550.4953L833.618103,550.753601L833.845154,550.985046L834.304138,550.988953L834.186462,564.74823L834.385681,568.190125L829.652771,570.4953C826.435608,572.083191,823.248047,573.72699,820.088806,575.427429C819.465332,575.773743,818.855469,576.144226,818.260681,576.537781L818.207947,582.729675C819.21698,581.377319,820.444458,580.203003,821.839294,579.253601C823.090393,578.43457,824.550537,577.99176,826.045837,577.980652L826.511169,577.833679C828.012573,577.275879,829.4245,576.501953,830.703064,575.537292C832.153809,574.489807,833.526978,573.338745,834.811462,572.092957L835.040466,572.09491L834.701599,584.934753L834.649841,585.054871C834.595398,585.120056,834.533997,585.179016,834.463806,585.227234C833.87207,585.421326,833.254883,585.526855,832.632263,585.54071C832.097595,585.573059,831.561951,585.589722,831.026306,585.591003L830.22699,585.892761C826.36853,587.41394,823.200867,590.296204,821.322205,593.993835L821.320251,594.223328L820.861267,594.219421L820.421814,593.608582C818.709412,591.190125,816.650146,589.037354,814.309998,587.219421C812.802551,586.097656,811.112366,585.245361,809.313904,584.700867C808.248474,584.398926,807.147339,584.240662,806.039978,584.23114L805.812439,583.999695L806.089294,551.665222L806.125916,551.603699L806.174255,551.551941L806.233337,551.512878L806.300232,551.487C806.990845,551.26178,807.702209,551.105896,808.423767,551.022156C809.632874,550.845032,810.845398,550.694153,812.060974,550.569519L812.547302,550.4245C814.084778,549.895325,815.495667,549.05249,816.688904,547.947937C817.624817,547.095337,818.471619,546.149841,819.217224,545.126648L819.926697,542.610046L820.385681,542.613953zM817.643494,568.27655C819.606262,567.346191,821.525818,566.327209,823.395935,565.222351C823.794189,564.977905,824.181274,564.715759,824.556091,564.436707L824.621033,556.868835L823.933044,556.862976C822.672913,556.82666,821.4646,556.353271,820.514587,555.524597C819.531921,554.718201,818.685486,553.758789,818.006287,552.684265L817.776794,552.682312L817.643494,568.27655z"/>
    <path style="stroke:none;fill:#000000;fill-rule:evenodd" d="M855.479126,533.977478L856.067993,533.993591C858.854797,534.051453,861.537781,535.0625,863.669556,536.858337C864.922791,537.9328,865.979004,539.217407,866.793579,540.653259C867.563599,541.992371,868.198181,543.404907,868.687622,544.870056L869.520142,554.738708L862.380005,558.346619C864.221863,564.732849,866.168762,571.089233,868.21936,577.41156C868.75061,578.995239,869.336121,580.560242,869.974243,582.103943C870.695435,583.670837,871.653076,585.117554,872.812134,586.394958C874.574585,588.370239,876.648071,590.04425,878.950806,591.350037C881.519348,592.854919,884.238892,594.086121,887.064575,595.022888L887.060669,595.481384C883.845276,595.433533,880.654541,594.911194,877.591431,593.932068C874.492126,592.959412,871.502197,591.667419,868.670044,590.076599L867.389771,589.350525C864.194763,586.980347,861.817688,583.673218,860.590454,579.889099L851.556763,563.529236L850.866821,563.75238L850.77063,574.989197L850.774536,575.274353L850.794556,575.557068C850.92511,576.877686,851.566772,578.094238,852.579712,578.951599C853.199524,579.487549,853.886169,579.941101,854.624146,580.297302L854.618286,580.985291L835.813599,580.824646L835.817505,580.365662L836.31897,580.191345C837.302917,579.861633,838.200989,579.317383,838.951294,578.600525L839.215454,578.293884C839.709534,577.647034,839.982727,576.857849,839.983032,576.043884L840.213989,575.816345L840.008423,573.062439L840.25354,544.3974C840.268188,542.250305,839.416504,540.187927,837.893188,538.674744C836.961914,537.699646,835.894775,536.864075,834.724243,536.194763C833.583435,535.526489,832.393555,534.94574,831.164673,534.457947L831.168579,533.999451L832.775513,533.78363L855.479126,533.977478zM847.866333,539.187927L847.86438,539.416931L848.075806,539.427185C848.893982,539.510986,849.614563,540.0047,849.987427,540.737732C850.47406,541.565247,850.785217,542.484436,850.901001,543.437439C851.165466,544.997192,851.275513,546.579224,851.229614,548.160583L851.15686,556.645447C853.733765,555.311707,856.244019,553.853149,858.678833,552.274841C858.944946,552.082947,859.204346,551.881775,859.455688,551.670837C859.504089,549.812866,859.328918,547.955811,858.934204,546.139587C858.62146,544.821655,858.058899,543.575928,857.277954,542.469177C856.236755,541.083008,854.739685,540.108887,853.050415,539.719177C851.35144,539.325623,849.609802,539.14679,847.866333,539.187927z"/>
    <path style="stroke:none;fill:#000000;fill-rule:evenodd" d="M899.601624,521.526733L899.927002,522.467651C901.212708,526.083862,903.480164,529.270691,906.474731,531.671204C906.933044,532.038818,907.407104,532.386414,907.895386,532.713196C910.263184,534.037476,912.728088,535.180054,915.268982,536.130798C916.345093,536.515076,917.453552,536.801941,918.580994,536.987793L919.092712,537.048706L919.302551,537.262207L919.134216,556.973511C919.123169,558.690918,919.76593,560.348572,920.935791,561.606018C921.802368,562.566345,922.820435,563.378357,923.949463,564.009521L923.947693,564.22168L919.686646,566.728577C919.115845,567.415771,918.651062,568.184448,918.307007,569.008911C918.225342,569.224304,918.188538,569.453003,918.177979,569.683105L917.983887,592.361694L917.556091,592.78186L915.648499,592.765564C911.854919,592.710632,908.174011,594.055542,905.309082,596.542847C903.646423,597.952393,902.194275,599.592896,900.995178,601.413147C900.01001,602.867126,899.131775,604.390808,898.366455,605.971619L897.942261,605.968018L897.689087,604.986023C896.954041,602.145569,895.770203,599.440857,894.182129,596.973816C892.221619,594.024597,889.590942,591.581299,886.505737,589.84259C884.15448,588.495117,881.6427,587.449341,879.030151,586.729187L879.220581,564.474854C879.200867,563.839783,879.057007,563.215027,878.801758,562.633118C878.360779,561.617126,877.809204,560.652649,877.15686,559.757507C876.430969,558.736816,875.65625,557.751709,874.834961,556.806091L874.836792,556.594421L875.428894,556.402222C877.114075,555.816895,878.458923,554.522522,879.108215,552.860962C879.414673,552.076355,879.61261,551.253601,879.696228,550.415405C879.750244,549.947632,879.777283,549.477051,879.77655,549.006042L879.925476,531.626526C879.961975,531.595581,879.994812,531.561646,880.036987,531.538086L880.102417,531.510071L880.172363,531.494263C881.182922,531.271606,882.206543,531.112244,883.237061,531.017273C884.466187,530.874329,885.697327,530.74408,886.929016,530.626465L887.816711,530.358826C889.94397,529.713867,891.962158,528.75293,893.804382,527.508972C895.236145,526.498291,896.450195,525.210205,897.374084,523.720825L899.308716,520.5578L899.601624,521.526733zM899.49646,537.740112L899.016296,537.770813C898.24292,537.806702,897.49115,538.03717,896.830261,538.440491C896.206238,538.863953,895.812378,539.552551,895.765259,540.305237L895.74585,540.664001L895.384766,582.841797C895.344421,583.880249,895.480347,584.918091,895.788696,585.910522C895.952271,586.371704,896.198792,586.799866,896.527893,587.161926C896.711609,587.346497,896.915466,587.510498,897.145691,587.632202C897.452454,587.797302,897.789429,587.89679,898.135864,587.932739C898.698608,587.973022,899.263184,587.980835,899.826843,587.956665L900.067383,587.918762L900.300659,587.853333C900.818359,587.669556,901.242493,587.290161,901.494324,586.801819C901.706909,586.448853,901.86377,586.065552,901.967712,585.666809C902.261719,584.485596,902.402893,583.271484,902.386536,582.05426L902.730835,541.78363C902.768799,540.933289,902.639343,540.083923,902.353577,539.282166C902.202576,538.9151,901.973938,538.585083,901.684326,538.313721C901.216309,537.920898,900.620667,537.713074,900.01001,537.73291L899.49646,537.740112z"/>
    <path style="stroke:none;fill:#000000;fill-rule:evenodd" d="M1043.58667,448.290771L1043.58667,501.560791L970.110168,545.340088L970.110168,584.527588L1030.115967,584.527588L1050.627686,604.733643L970.110168,604.733643L933.372375,582.078369L933.372375,530.032959L1006.84845,485.947021L1006.84845,434.820068L1001.950012,431.758545L974.702454,450.127686L974.702454,470.0271L937.658508,451.046143L937.658508,430.840088L978.070129,407.266357L1043.58667,448.290771z"/>
    <path style="stroke:none;fill:#000000;fill-rule:evenodd" d="M754.241455,436.580536C747.38324,436.666565,741.510681,431.606781,740.589233,424.817841C739.805237,419.041504,742.800781,413.462189,748.152771,410.730713L749.290405,410.150085L761.345215,407.749054C773.395874,405.348816,773.400391,405.348053,774.673096,405.44754C781.043884,405.945679,786.054688,410.285309,787.262817,416.35083C788.552246,422.824402,785.138916,429.161774,779.034058,431.629059C778.007568,432.043884,776.214417,432.434418,766.585083,434.340271C758.029419,436.0336,755.073425,436.570099,754.241455,436.580536zM777.867432,426.204407C780.298462,424.731049,781.714233,422.649841,782.065735,420.03299C782.279846,418.438568,781.83551,416.312744,780.997437,414.922058C779.610535,412.620728,777.287415,411.16803,774.59906,410.921051C773.83606,410.850952,772.386108,411.109558,762.489929,413.080658C750.234009,415.521759,750.355286,415.489563,748.882324,416.694275C747.976929,417.434814,746.53595,419.585205,746.244141,420.631378C745.261902,424.152649,746.564514,427.772827,749.525269,429.750031C750.978638,430.720612,752.90625,431.231934,754.722168,431.12854C754.977783,431.113983,760.101318,430.114471,766.107788,428.90741C776.926331,426.733307,777.03656,426.707977,777.867432,426.204407zM768.456238,416.034698L774.605896,412.834534L775.961975,414.778168L769.812317,417.978333L768.456238,416.034698zM757.547058,418.207581L750.640625,417.60791L750.132751,419.922791L757.039185,420.522461L757.547058,418.207581zM753.315002,425.636902C752.094238,425.262451,751.529663,424.556732,751.375977,423.213013C751.212891,421.786591,752.078186,420.637634,753.533997,420.347656C756.043457,419.847839,757.791016,423.018127,756.034241,424.883484C755.489624,425.461823,754.047241,425.86145,753.315002,425.636902zM773.003113,421.698242C772.700012,421.612854,772.2229,421.340973,771.94281,421.094025C771.501404,420.704865,771.405334,420.503082,771.221191,419.578552C771.046631,418.702423,771.054016,418.411499,771.262268,417.948853C771.821838,416.705688,773.369507,416.062592,774.695984,416.522095C776.463928,417.134583,777.060425,419.585724,775.773926,420.951782C775.221741,421.538116,773.797119,421.921906,773.003113,421.698242z"/>
</svg>
